<svg width="64" height="64" viewBox="0 0 64 64" xmlns="http://www.w3.org/2000/svg">
  <defs>
    <linearGradient id="grad" x1="0%" y1="0%" x2="100%" y2="100%">
      <stop offset="0%" style="stop-color:#FF6B35;stop-opacity:1" />
      <stop offset="100%" style="stop-color:#F7931E;stop-opacity:1" />
    </linearGradient>
  </defs>

  <!-- Background circle -->
  <circle cx="32" cy="32" r="32" fill="url(#grad)"/>

  <!-- Letter "B" using path instead of text for better compatibility -->
  <path d="M 20 18 L 20 46 L 35 46 C 40 46 43 43 43 38 C 43 35 41 33 39 32 C 41 31 42 29 42 26 C 42 21 39 18 34 18 Z M 26 23 L 33 23 C 36 23 37 24 37 26 C 37 28 36 29 33 29 L 26 29 Z M 26 34 L 34 34 C 37 34 38 35 38 38 C 38 40 37 41 34 41 L 26 41 Z"
        fill="white" stroke="#8B4513" stroke-width="0.5"/>

  <!-- Small burger accent -->
  <circle cx="48" cy="16" r="7" fill="#DC143C"/>
  <rect x="43" y="15" width="10" height="1.5" fill="#FFD700" rx="0.5"/>
  <rect x="43" y="17.5" width="10" height="1" fill="#8B4513" rx="0.5"/>
</svg>
